<svg width="514" height="151" viewBox="0 0 514 151" fill="none" xmlns="http://www.w3.org/2000/svg">
<rect x="458" y="4" width="46" height="80" fill="#C4C4C4"/>
<rect x="504" y="4" width="10" height="80" fill="#898686"/>
<rect x="455" y="4" width="3" height="80" fill="#898686"/>
<rect x="458" y="88" width="46" height="50" fill="#C4C4C4"/>
<rect x="504" y="88" width="10" height="50" fill="#898686"/>
<rect x="455" y="88" width="3" height="50" fill="#898686"/>
<rect x="456" width="57" height="4" fill="#575656"/>
<rect x="456" y="84" width="57" height="4" fill="#575656"/>
<rect x="456" y="138" width="57" height="4" fill="#575656"/>
<rect x="461" y="65" width="3" height="15" rx="1.5" fill="#504E4E"/>
<rect x="461" y="92" width="3" height="15" rx="1.5" fill="#504E4E"/>
<path d="M160.483 62.3V85.4H180.483V92.2H160.483V122H153.783V55.5H190.183V62.3H160.483ZM217.113 79.4C215.58 78.7333 214.046 78.4 212.513 78.4C209.38 78.4 206.68 79.5333 204.413 81.8C202.146 84.0667 201.013 86.7667 201.013 89.9V122H194.213V89.9C194.213 86.3 195.146 83.0333 197.013 80.1C198.946 77.1 201.446 74.8667 204.513 73.4L204.713 73.3C207.18 72.1667 209.78 71.6 212.513 71.6C216.78 71.6 220.58 72.9 223.913 75.5L217.113 79.4ZM234.357 58.1C235.557 58.1 236.591 58.5333 237.457 59.4C238.324 60.2667 238.757 61.3 238.757 62.5C238.757 63.7667 238.324 64.8333 237.457 65.7C236.591 66.5667 235.557 67 234.357 67C233.091 67 232.024 66.5667 231.157 65.7C230.291 64.8333 229.857 63.7667 229.857 62.5C229.857 61.3 230.291 60.2667 231.157 59.4C232.024 58.5333 233.091 58.1 234.357 58.1ZM237.757 72V122H230.857V72H237.757ZM295.475 122H288.775V112.7C283.909 119.233 277.675 122.5 270.075 122.5C265.475 122.5 261.242 121.367 257.375 119.1C253.509 116.833 250.442 113.767 248.175 109.9C245.909 105.967 244.775 101.733 244.775 97.2C244.775 92.6667 245.909 88.4667 248.175 84.6C250.442 80.6667 253.509 77.5667 257.375 75.3C261.242 73.0333 265.475 71.9 270.075 71.9C277.942 71.9 284.175 75 288.775 81.2V55.6H295.475V122ZM288.575 97.2C288.575 93.8667 287.742 90.8 286.075 88C284.409 85.2 282.142 82.9667 279.275 81.3C276.475 79.6333 273.409 78.8 270.075 78.8C266.742 78.8 263.675 79.6333 260.875 81.3C258.075 82.9667 255.842 85.2 254.175 88C252.509 90.8 251.675 93.8667 251.675 97.2C251.675 100.533 252.509 103.633 254.175 106.5C255.842 109.3 258.075 111.533 260.875 113.2C263.675 114.867 266.742 115.7 270.075 115.7C273.409 115.7 276.475 114.867 279.275 113.2C282.142 111.533 284.409 109.3 286.075 106.5C287.742 103.633 288.575 100.533 288.575 97.2ZM354.843 73.3V118.2C354.843 122.733 353.71 126.933 351.443 130.8C349.177 134.667 346.11 137.7 342.243 139.9C338.377 142.167 334.177 143.3 329.643 143.3C325.71 143.3 322.01 142.467 318.543 140.8C315.143 139.133 312.277 136.833 309.943 133.9L316.043 130.3C317.71 132.233 319.71 133.733 322.043 134.8C324.443 135.933 326.977 136.5 329.643 136.5C332.977 136.5 336.043 135.667 338.843 134C341.643 132.4 343.843 130.2 345.443 127.4C347.11 124.6 347.943 121.533 347.943 118.2V112.6C343.343 119.067 337.21 122.3 329.543 122.3C325.077 122.3 320.91 121.1 317.043 118.7C313.177 116.3 310.11 113.133 307.843 109.2C305.577 105.2 304.443 100.967 304.443 96.5C304.443 92.0333 305.577 87.9333 307.843 84.2C310.11 80.4667 313.143 77.5 316.943 75.3C320.81 73.1 325.01 72 329.543 72C334.21 72 338.077 73 341.143 75C344.21 76.9333 346.477 79.0333 347.943 81.3V73.3H354.843ZM329.543 115.5C332.877 115.5 335.943 114.7 338.743 113.1C341.543 111.433 343.743 109.2 345.343 106.4C347.01 103.6 347.843 100.533 347.843 97.2C347.843 93.8667 347.01 90.8 345.343 88C343.743 85.2 341.543 83 338.743 81.4C335.943 79.7333 332.877 78.9 329.543 78.9C326.21 78.9 323.143 79.7333 320.343 81.4C317.543 83 315.31 85.2 313.643 88C311.977 90.8 311.143 93.8667 311.143 97.2C311.143 100.533 311.977 103.6 313.643 106.4C315.31 109.2 317.543 111.433 320.343 113.1C323.143 114.7 326.21 115.5 329.543 115.5ZM371.018 100.7C371.818 104.967 373.918 108.533 377.318 111.4C380.718 114.2 384.618 115.6 389.018 115.6C392.285 115.6 395.285 114.833 398.018 113.3C400.752 111.767 402.952 109.667 404.618 107L410.518 110.4C408.252 114.067 405.218 117 401.418 119.2C397.618 121.4 393.485 122.5 389.018 122.5C384.485 122.5 380.285 121.367 376.418 119.1C372.552 116.833 369.485 113.767 367.218 109.9C364.952 106.033 363.818 101.833 363.818 97.3C363.818 92.7 364.952 88.5 367.218 84.7C369.485 80.8333 372.552 77.7667 376.418 75.5C380.285 73.2333 384.485 72.1 389.018 72.1C393.552 72.1 397.752 73.2333 401.618 75.5C405.485 77.7667 408.552 80.8333 410.818 84.7C413.085 88.5 414.218 92.7 414.218 97.3C414.218 98.1 414.152 99.2333 414.018 100.7H371.018ZM389.018 78.9C386.085 78.9 383.218 79.6 380.418 81C377.618 82.3333 375.352 84.2 373.618 86.6C371.885 88.9333 371.018 91.4667 371.018 94.2H407.018C407.018 91.4667 406.152 88.9333 404.418 86.6C402.685 84.2 400.418 82.3333 397.618 81C394.885 79.6 392.018 78.9 389.018 78.9Z" fill="#E6EDEC"/>
<path d="M160.483 62.3V59.3H157.483V62.3H160.483ZM160.483 85.4H157.483V88.4H160.483V85.4ZM180.483 85.4H183.483V82.4H180.483V85.4ZM180.483 92.2V95.2H183.483V92.2H180.483ZM160.483 92.2V89.2H157.483V92.2H160.483ZM160.483 122V125H163.483V122H160.483ZM153.783 122H150.783V125H153.783V122ZM153.783 55.5V52.5H150.783V55.5H153.783ZM190.183 55.5H193.183V52.5H190.183V55.5ZM190.183 62.3V65.3H193.183V62.3H190.183ZM157.483 62.3V85.4H163.483V62.3H157.483ZM160.483 88.4H180.483V82.4H160.483V88.4ZM177.483 85.4V92.2H183.483V85.4H177.483ZM180.483 89.2H160.483V95.2H180.483V89.2ZM157.483 92.2V122H163.483V92.2H157.483ZM160.483 119H153.783V125H160.483V119ZM156.783 122V55.5H150.783V122H156.783ZM153.783 58.5H190.183V52.5H153.783V58.5ZM187.183 55.5V62.3H193.183V55.5H187.183ZM190.183 59.3H160.483V65.3H190.183V59.3ZM217.113 79.4L215.917 82.1512L217.298 82.752L218.605 82.0024L217.113 79.4ZM204.413 81.8L206.534 83.9213L206.534 83.9213L204.413 81.8ZM201.013 122V125H204.013V122H201.013ZM194.213 122H191.213V125H194.213V122ZM197.013 80.1L194.491 78.4749L194.487 78.4821L194.482 78.4894L197.013 80.1ZM204.513 73.4L205.807 76.1064L205.831 76.095L205.855 76.0833L204.513 73.4ZM204.713 73.3L203.46 70.574L203.415 70.5946L203.371 70.6167L204.713 73.3ZM223.913 75.5L225.405 78.1024L229.279 75.8808L225.758 73.1345L223.913 75.5ZM218.309 76.6488C216.433 75.833 214.494 75.4 212.513 75.4V81.4C213.599 81.4 214.726 81.6337 215.917 82.1512L218.309 76.6488ZM212.513 75.4C208.564 75.4 205.106 76.8639 202.292 79.6787L206.534 83.9213C208.253 82.2027 210.196 81.4 212.513 81.4V75.4ZM202.292 79.6787C199.477 82.4934 198.013 85.9507 198.013 89.9H204.013C204.013 87.5826 204.816 85.6399 206.534 83.9213L202.292 79.6787ZM198.013 89.9V122H204.013V89.9H198.013ZM201.013 119H194.213V125H201.013V119ZM197.213 122V89.9H191.213V122H197.213ZM197.213 89.9C197.213 86.8493 197.995 84.145 199.544 81.7106L194.482 78.4894C192.298 81.9217 191.213 85.7507 191.213 89.9H197.213ZM199.535 81.7251C201.183 79.1679 203.268 77.3211 205.807 76.1064L203.219 70.6936C199.625 72.4123 196.71 75.0321 194.491 78.4749L199.535 81.7251ZM205.855 76.0833L206.055 75.9833L203.371 70.6167L203.171 70.7167L205.855 76.0833ZM205.965 76.026C208.036 75.0745 210.209 74.6 212.513 74.6V68.6C209.35 68.6 206.323 69.2588 203.46 70.574L205.965 76.026ZM212.513 74.6C216.118 74.6 219.267 75.6808 222.068 77.8655L225.758 73.1345C221.892 70.1192 217.441 68.6 212.513 68.6V74.6ZM222.42 72.8976L215.62 76.7976L218.605 82.0024L225.405 78.1024L222.42 72.8976ZM237.457 59.4L235.336 61.5213L235.336 61.5213L237.457 59.4ZM237.457 65.7L235.336 63.5787H235.336L237.457 65.7ZM231.157 65.7L229.036 67.8213L231.157 65.7ZM231.157 59.4L229.036 57.2787L231.157 59.4ZM237.757 72H240.757V69H237.757V72ZM237.757 122V125H240.757V122H237.757ZM230.857 122H227.857V125H230.857V122ZM230.857 72V69H227.857V72H230.857ZM234.357 61.1C234.743 61.1 235.019 61.2038 235.336 61.5213L239.579 57.2787C238.163 55.8629 236.372 55.1 234.357 55.1V61.1ZM235.336 61.5213C235.654 61.8389 235.757 62.1145 235.757 62.5H241.757C241.757 60.4855 240.995 58.6945 239.579 57.2787L235.336 61.5213ZM235.757 62.5C235.757 63.0008 235.619 63.2953 235.336 63.5787L239.579 67.8213C241.029 66.3713 241.757 64.5326 241.757 62.5H235.757ZM235.336 63.5787C235.019 63.8962 234.743 64 234.357 64V70C236.372 70 238.163 69.2371 239.579 67.8213L235.336 63.5787ZM234.357 64C233.857 64 233.562 63.862 233.279 63.5787L229.036 67.8213C230.486 69.2713 232.325 70 234.357 70V64ZM233.279 63.5787C232.995 63.2953 232.857 63.0008 232.857 62.5H226.857C226.857 64.5326 227.586 66.3713 229.036 67.8213L233.279 63.5787ZM232.857 62.5C232.857 62.1145 232.961 61.8389 233.279 61.5213L229.036 57.2787C227.62 58.6945 226.857 60.4855 226.857 62.5H232.857ZM233.279 61.5213C233.562 61.238 233.857 61.1 234.357 61.1V55.1C232.325 55.1 230.486 55.8287 229.036 57.2787L233.279 61.5213ZM234.757 72V122H240.757V72H234.757ZM237.757 119H230.857V125H237.757V119ZM233.857 122V72H227.857V122H233.857ZM230.857 75H237.757V69H230.857V75ZM295.475 122V125H298.475V122H295.475ZM288.775 122H285.775V125H288.775V122ZM288.775 112.7H291.775V103.651L286.37 110.908L288.775 112.7ZM257.375 119.1L258.893 116.512L257.375 119.1ZM248.175 109.9L245.576 111.398L245.582 111.408L245.587 111.417L248.175 109.9ZM248.175 84.6L250.763 86.1172L250.769 86.1075L250.775 86.0979L248.175 84.6ZM257.375 75.3L258.893 77.8881L257.375 75.3ZM288.775 81.2L286.366 82.9875L291.775 90.2783V81.2H288.775ZM288.775 55.6V52.6H285.775V55.6H288.775ZM295.475 55.6H298.475V52.6H295.475V55.6ZM286.075 88L283.498 89.5345L286.075 88ZM279.275 81.3L277.741 83.8779L277.754 83.8858L277.768 83.8935L279.275 81.3ZM260.875 81.3L262.41 83.8779V83.8779L260.875 81.3ZM254.175 88L256.753 89.5345L254.175 88ZM254.175 106.5L251.582 108.008L251.59 108.021L251.598 108.034L254.175 106.5ZM260.875 113.2L259.341 115.778L260.875 113.2ZM279.275 113.2L277.768 110.606L277.754 110.614L277.741 110.622L279.275 113.2ZM286.075 106.5L288.653 108.034L288.661 108.021L288.669 108.008L286.075 106.5ZM295.475 119H288.775V125H295.475V119ZM291.775 122V112.7H285.775V122H291.775ZM286.37 110.908C282.022 116.745 276.651 119.5 270.075 119.5V125.5C278.7 125.5 285.796 121.722 291.181 114.492L286.37 110.908ZM270.075 119.5C265.994 119.5 262.287 118.502 258.893 116.512L255.858 121.688C260.198 124.232 264.957 125.5 270.075 125.5V119.5ZM258.893 116.512C255.469 114.505 252.771 111.807 250.763 108.383L245.587 111.417C248.113 115.727 251.549 119.162 255.858 121.688L258.893 116.512ZM250.775 108.402C248.77 104.924 247.775 101.207 247.775 97.2H241.775C241.775 102.26 243.047 107.01 245.576 111.398L250.775 108.402ZM247.775 97.2C247.775 93.1936 248.77 89.5182 250.763 86.1172L245.587 83.0828C243.048 87.4151 241.775 92.1397 241.775 97.2H247.775ZM250.775 86.0979C252.785 82.6096 255.481 79.8879 258.893 77.8881L255.858 72.7119C251.536 75.2454 248.099 78.7237 245.576 83.1021L250.775 86.0979ZM258.893 77.8881C262.287 75.8985 265.994 74.9 270.075 74.9V68.9C264.957 68.9 260.198 70.1682 255.858 72.7119L258.893 77.8881ZM270.075 74.9C277.014 74.9 282.345 77.5672 286.366 82.9875L291.185 79.4125C286.006 72.4328 278.871 68.9 270.075 68.9V74.9ZM291.775 81.2V55.6H285.775V81.2H291.775ZM288.775 58.6H295.475V52.6H288.775V58.6ZM292.475 55.6V122H298.475V55.6H292.475ZM291.575 97.2C291.575 93.3395 290.603 89.7408 288.653 86.4655L283.498 89.5345C284.881 91.8592 285.575 94.3938 285.575 97.2H291.575ZM288.653 86.4655C286.721 83.2193 284.083 80.6248 280.783 78.7065L277.768 83.8935C280.201 85.3086 282.096 87.1807 283.498 89.5345L288.653 86.4655ZM280.81 78.7221C277.535 76.7726 273.936 75.8 270.075 75.8V81.8C272.882 81.8 275.416 82.4941 277.741 83.8779L280.81 78.7221ZM270.075 75.8C266.215 75.8 262.616 76.7726 259.341 78.7221L262.41 83.8779C264.735 82.4941 267.269 81.8 270.075 81.8V75.8ZM259.341 78.7221C256.112 80.6443 253.52 83.2363 251.598 86.4655L256.753 89.5345C258.164 87.1637 260.039 85.289 262.41 83.8779L259.341 78.7221ZM251.598 86.4655C249.648 89.7408 248.675 93.3395 248.675 97.2H254.675C254.675 94.3938 255.369 91.8592 256.753 89.5345L251.598 86.4655ZM248.675 97.2C248.675 101.06 249.648 104.681 251.582 108.008L256.769 104.992C255.37 102.586 254.675 100.007 254.675 97.2H248.675ZM251.598 108.034C253.52 111.264 256.112 113.856 259.341 115.778L262.41 110.622C260.039 109.211 258.164 107.336 256.753 104.966L251.598 108.034ZM259.341 115.778C262.616 117.727 266.215 118.7 270.075 118.7V112.7C267.269 112.7 264.735 112.006 262.41 110.622L259.341 115.778ZM270.075 118.7C273.936 118.7 277.535 117.727 280.81 115.778L277.741 110.622C275.416 112.006 272.882 112.7 270.075 112.7V118.7ZM280.783 115.794C284.083 113.875 286.721 111.281 288.653 108.034L283.498 104.966C282.096 107.319 280.201 109.191 277.768 110.606L280.783 115.794ZM288.669 108.008C290.603 104.681 291.575 101.06 291.575 97.2H285.575C285.575 100.007 284.881 102.586 283.482 104.992L288.669 108.008ZM354.843 73.3H357.843V70.3H354.843V73.3ZM351.443 130.8L354.031 132.317L351.443 130.8ZM342.243 139.9L340.76 137.293L340.743 137.302L340.726 137.312L342.243 139.9ZM318.543 140.8L317.223 143.494L317.233 143.499L317.243 143.504L318.543 140.8ZM309.943 133.9L308.419 131.316L305.449 133.069L307.596 135.768L309.943 133.9ZM316.043 130.3L318.316 128.341L316.678 126.442L314.519 127.716L316.043 130.3ZM322.043 134.8L323.324 132.087L323.308 132.079L323.291 132.072L322.043 134.8ZM338.843 134L337.355 131.395L337.332 131.408L337.309 131.422L338.843 134ZM345.443 127.4L342.865 125.866L342.852 125.888L342.839 125.912L345.443 127.4ZM347.943 112.6H350.943V103.207L345.499 110.861L347.943 112.6ZM317.043 118.7L315.461 121.249L317.043 118.7ZM307.843 109.2L305.233 110.679L305.239 110.688L305.244 110.698L307.843 109.2ZM307.843 84.2L305.279 82.6431L307.843 84.2ZM316.943 75.3L315.46 72.6925L315.45 72.6981L315.44 72.7037L316.943 75.3ZM341.143 75L339.505 77.5128L339.524 77.5255L339.543 77.5378L341.143 75ZM347.943 81.3L345.425 82.9298L350.943 91.4587V81.3H347.943ZM347.943 73.3V70.3H344.943V73.3H347.943ZM338.743 113.1L340.232 115.705L340.255 115.692L340.278 115.678L338.743 113.1ZM345.343 106.4L342.765 104.866L342.752 104.888L342.739 104.912L345.343 106.4ZM345.343 88L342.739 89.4884L342.752 89.5116L342.765 89.5345L345.343 88ZM338.743 81.4L337.209 83.9779L337.232 83.9915L337.255 84.0047L338.743 81.4ZM320.343 81.4L321.832 84.0047L321.855 83.9915L321.878 83.9779L320.343 81.4ZM313.643 88L316.221 89.5345L313.643 88ZM313.643 106.4L311.065 107.934L313.643 106.4ZM320.343 113.1L318.809 115.678L318.832 115.692L318.855 115.705L320.343 113.1ZM351.843 73.3V118.2H357.843V73.3H351.843ZM351.843 118.2C351.843 122.206 350.849 125.882 348.855 129.283L354.031 132.317C356.571 127.985 357.843 123.26 357.843 118.2H351.843ZM348.855 129.283C346.853 132.699 344.165 135.355 340.76 137.293L343.727 142.507C348.055 140.045 351.501 136.634 354.031 132.317L348.855 129.283ZM340.726 137.312C337.325 139.306 333.65 140.3 329.643 140.3V146.3C334.704 146.3 339.428 145.028 343.761 142.488L340.726 137.312ZM329.643 140.3C326.15 140.3 322.895 139.563 319.843 138.096L317.243 143.504C321.125 145.37 325.27 146.3 329.643 146.3V140.3ZM319.864 138.106C316.859 136.633 314.345 134.614 312.291 132.032L307.596 135.768C310.209 139.053 313.428 141.633 317.223 143.494L319.864 138.106ZM311.468 136.484L317.568 132.884L314.519 127.716L308.419 131.316L311.468 136.484ZM313.771 132.259C315.721 134.521 318.072 136.283 320.796 137.528L323.291 132.072C321.348 131.184 319.699 129.945 318.316 128.341L313.771 132.259ZM320.762 137.513C323.565 138.836 326.536 139.5 329.643 139.5V133.5C327.418 133.5 325.322 133.031 323.324 132.087L320.762 137.513ZM329.643 139.5C333.504 139.5 337.103 138.527 340.378 136.578L337.309 131.422C334.984 132.806 332.45 133.5 329.643 133.5V139.5ZM340.332 136.605C343.597 134.739 346.182 132.154 348.048 128.888L342.839 125.912C341.504 128.246 339.69 130.061 337.355 131.395L340.332 136.605ZM348.021 128.934C349.971 125.659 350.943 122.06 350.943 118.2H344.943C344.943 121.006 344.249 123.541 342.865 125.866L348.021 128.934ZM350.943 118.2V112.6H344.943V118.2H350.943ZM345.499 110.861C341.438 116.569 336.199 119.3 329.543 119.3V125.3C338.221 125.3 345.249 121.564 350.388 114.339L345.499 110.861ZM329.543 119.3C325.647 119.3 322.027 118.262 318.625 116.151L315.461 121.249C319.794 123.938 324.507 125.3 329.543 125.3V119.3ZM318.625 116.151C315.178 114.011 312.462 111.205 310.443 107.702L305.244 110.698C307.759 115.061 311.175 118.589 315.461 121.249L318.625 116.151ZM310.453 107.721C308.435 104.158 307.443 100.433 307.443 96.5H301.443C301.443 101.501 302.719 106.242 305.233 110.679L310.453 107.721ZM307.443 96.5C307.443 92.5693 308.433 89.0098 310.408 85.7569L305.279 82.6431C302.721 86.8568 301.443 91.4974 301.443 96.5H307.443ZM310.408 85.7569C312.412 82.4559 315.079 79.8457 318.446 77.8963L315.44 72.7037C311.207 75.1543 307.808 78.4774 305.279 82.6431L310.408 85.7569ZM318.427 77.9075C321.833 75.9698 325.52 75 329.543 75V69C324.5 69 319.788 70.2302 315.46 72.6925L318.427 77.9075ZM329.543 75C333.787 75 337.043 75.9076 339.505 77.5128L342.782 72.4872C339.11 70.0924 334.633 69 329.543 69V75ZM339.543 77.5378C342.361 79.3143 344.261 81.1317 345.425 82.9298L350.462 79.6702C348.692 76.935 346.059 74.5523 342.743 72.4622L339.543 77.5378ZM350.943 81.3V73.3H344.943V81.3H350.943ZM347.943 76.3H354.843V70.3H347.943V76.3ZM329.543 118.5C333.38 118.5 336.963 117.573 340.232 115.705L337.255 110.495C334.924 111.827 332.373 112.5 329.543 112.5V118.5ZM340.278 115.678C343.518 113.749 346.089 111.143 347.948 107.888L342.739 104.912C341.398 107.257 339.569 109.117 337.209 110.522L340.278 115.678ZM347.921 107.934C349.871 104.659 350.843 101.06 350.843 97.2H344.843C344.843 100.006 344.149 102.541 342.765 104.866L347.921 107.934ZM350.843 97.2C350.843 93.3395 349.871 89.7408 347.921 86.4655L342.765 89.5345C344.149 91.8592 344.843 94.3938 344.843 97.2H350.843ZM347.948 86.5116C346.082 83.2465 343.497 80.661 340.232 78.7953L337.255 84.0047C339.59 85.339 341.404 87.1535 342.739 89.4884L347.948 86.5116ZM340.278 78.8221C337.003 76.8726 333.404 75.9 329.543 75.9V81.9C332.35 81.9 334.884 82.5941 337.209 83.9779L340.278 78.8221ZM329.543 75.9C325.683 75.9 322.084 76.8726 318.809 78.8221L321.878 83.9779C324.203 82.5941 326.737 81.9 329.543 81.9V75.9ZM318.855 78.7953C315.601 80.6549 312.994 83.2256 311.065 86.4655L316.221 89.5345C317.626 87.1744 319.486 85.3451 321.832 84.0047L318.855 78.7953ZM311.065 86.4655C309.116 89.7408 308.143 93.3395 308.143 97.2H314.143C314.143 94.3938 314.837 91.8592 316.221 89.5345L311.065 86.4655ZM308.143 97.2C308.143 101.06 309.116 104.659 311.065 107.934L316.221 104.866C314.837 102.541 314.143 100.006 314.143 97.2H308.143ZM311.065 107.934C312.988 111.164 315.58 113.756 318.809 115.678L321.878 110.522C319.507 109.111 317.632 107.236 316.221 104.866L311.065 107.934ZM318.855 115.705C322.124 117.573 325.706 118.5 329.543 118.5V112.5C326.714 112.5 324.163 111.827 321.832 110.495L318.855 115.705ZM371.018 100.7V97.7H367.404L368.07 101.253L371.018 100.7ZM377.318 111.4L375.385 113.694L375.398 113.705L375.411 113.716L377.318 111.4ZM398.018 113.3L399.486 115.916L398.018 113.3ZM404.618 107L406.116 104.401L403.608 102.956L402.074 105.41L404.618 107ZM410.518 110.4L413.07 111.977L414.697 109.346L412.016 107.801L410.518 110.4ZM401.418 119.2L399.915 116.604L401.418 119.2ZM376.418 119.1L377.936 116.512L376.418 119.1ZM367.218 109.9L369.806 108.383L367.218 109.9ZM367.218 84.7L369.795 86.2368L369.801 86.227L369.806 86.2172L367.218 84.7ZM376.418 75.5L374.901 72.9119V72.9119L376.418 75.5ZM401.618 75.5L403.136 72.9119V72.9119L401.618 75.5ZM410.818 84.7L408.23 86.2172L408.236 86.227L408.242 86.2368L410.818 84.7ZM414.018 100.7V103.7H416.758L417.006 100.972L414.018 100.7ZM380.418 81L381.708 83.7086L381.734 83.6962L381.76 83.6833L380.418 81ZM373.618 86.6L376.027 88.389L376.039 88.3728L376.05 88.3565L373.618 86.6ZM371.018 94.2H368.018V97.2H371.018V94.2ZM407.018 94.2V97.2H410.018V94.2H407.018ZM404.418 86.6L401.986 88.3565L401.998 88.3728L402.01 88.389L404.418 86.6ZM397.618 81L396.251 83.6701L396.289 83.6899L396.329 83.7086L397.618 81ZM368.07 101.253C369.001 106.217 371.47 110.393 375.385 113.694L379.252 109.106C376.367 106.674 374.636 103.716 373.967 100.147L368.07 101.253ZM375.411 113.716C379.348 116.958 383.922 118.6 389.018 118.6V112.6C385.315 112.6 382.089 111.442 379.225 109.084L375.411 113.716ZM389.018 118.6C392.776 118.6 396.285 117.712 399.486 115.916L396.551 110.684C394.285 111.955 391.794 112.6 389.018 112.6V118.6ZM399.486 115.916C402.66 114.136 405.23 111.682 407.162 108.59L402.074 105.41C400.674 107.651 398.843 109.397 396.551 110.684L399.486 115.916ZM403.12 109.599L409.02 112.999L412.016 107.801L406.116 104.401L403.12 109.599ZM407.967 108.823C405.965 112.06 403.295 114.647 399.915 116.604L402.921 121.796C407.141 119.353 410.538 116.073 413.07 111.977L407.967 108.823ZM399.915 116.604C396.58 118.535 392.967 119.5 389.018 119.5V125.5C394.003 125.5 398.656 124.265 402.921 121.796L399.915 116.604ZM389.018 119.5C385.012 119.5 381.337 118.506 377.936 116.512L374.901 121.688C379.233 124.228 383.958 125.5 389.018 125.5V119.5ZM377.936 116.512C374.512 114.505 371.814 111.807 369.806 108.383L364.63 111.417C367.156 115.727 370.592 119.162 374.901 121.688L377.936 116.512ZM369.806 108.383C367.813 104.982 366.818 101.306 366.818 97.3H360.818C360.818 102.36 362.091 107.085 364.63 111.417L369.806 108.383ZM366.818 97.3C366.818 93.2187 367.817 89.5532 369.795 86.2368L364.642 83.1632C362.087 87.4468 360.818 92.1813 360.818 97.3H366.818ZM369.806 86.2172C371.814 82.7932 374.512 80.0952 377.936 78.0881L374.901 72.9119C370.592 75.4381 367.156 78.8735 364.63 83.1828L369.806 86.2172ZM377.936 78.0881C381.337 76.0944 385.012 75.1 389.018 75.1V69.1C383.958 69.1 379.233 70.3723 374.901 72.9119L377.936 78.0881ZM389.018 75.1C393.025 75.1 396.7 76.0944 400.101 78.0881L403.136 72.9119C398.803 70.3723 394.079 69.1 389.018 69.1V75.1ZM400.101 78.0881C403.525 80.0952 406.223 82.7932 408.23 86.2172L413.406 83.1828C410.88 78.8735 407.445 75.4381 403.136 72.9119L400.101 78.0881ZM408.242 86.2368C410.22 89.5532 411.218 93.2187 411.218 97.3H417.218C417.218 92.1813 415.95 87.4468 413.395 83.1632L408.242 86.2368ZM411.218 97.3C411.218 97.9635 411.161 98.9906 411.031 100.428L417.006 100.972C417.142 99.4761 417.218 98.2365 417.218 97.3H411.218ZM414.018 97.7H371.018V103.7H414.018V97.7ZM389.018 75.9C385.588 75.9 382.265 76.7228 379.077 78.3167L381.76 83.6833C384.172 82.4772 386.582 81.9 389.018 81.9V75.9ZM379.129 78.2914C375.896 79.8306 373.229 82.0157 371.186 84.8435L376.05 88.3565C377.475 86.3843 379.34 84.8361 381.708 83.7086L379.129 78.2914ZM371.21 84.811C369.118 87.6267 368.018 90.7801 368.018 94.2H374.018C374.018 92.1532 374.652 90.2399 376.027 88.389L371.21 84.811ZM371.018 97.2H407.018V91.2H371.018V97.2ZM410.018 94.2C410.018 90.7801 408.918 87.6267 406.827 84.811L402.01 88.389C403.385 90.2399 404.018 92.1532 404.018 94.2H410.018ZM406.85 84.8435C404.808 82.0157 402.14 79.8306 398.908 78.2914L396.329 83.7086C398.696 84.8361 400.562 86.3843 401.986 88.3565L406.85 84.8435ZM398.986 78.3299C395.84 76.7184 392.505 75.9 389.018 75.9V81.9C391.531 81.9 393.93 82.4816 396.251 83.6701L398.986 78.3299Z" fill="black"/>
<path d="M77.4211 55.5V121.8H70.5211V65.2L48.1211 97.6H42.3211L19.9211 65.2V122H13.1211V55.5H21.5211L45.2211 89.8L68.9211 55.5H77.4211ZM129.838 72V121.6C129.838 125.533 128.871 129.167 126.938 132.5C125.004 135.833 122.371 138.467 119.038 140.4C115.704 142.333 112.071 143.3 108.137 143.3C104.338 143.3 100.838 142.4 97.6375 140.6C94.4375 138.8 91.8375 136.367 89.8375 133.3L95.8375 129.9C97.1708 131.9 98.9042 133.5 101.038 134.7C103.238 135.9 105.604 136.5 108.137 136.5C110.804 136.5 113.271 135.833 115.538 134.5C117.871 133.167 119.704 131.333 121.038 129C122.371 126.733 123.038 124.267 123.038 121.6V116.3C121.038 118.167 118.771 119.633 116.238 120.7C113.704 121.7 111.004 122.2 108.137 122.2C104.271 122.2 100.671 121.267 97.3375 119.4C94.0708 117.467 91.4375 114.9 89.4375 111.7C87.5042 108.5 86.5042 104.967 86.4375 101.1V72H93.2375V100.5C93.2375 103.167 93.9042 105.667 95.2375 108C96.5708 110.267 98.3708 112.067 100.638 113.4C102.971 114.733 105.471 115.4 108.137 115.4C110.804 115.4 113.271 114.733 115.538 113.4C117.871 112.067 119.704 110.267 121.038 108C122.371 105.667 123.038 103.167 123.038 100.5V72H129.838Z" fill="#E6EDEC"/>
<path d="M77.4211 55.5H80.4211V52.5H77.4211V55.5ZM77.4211 121.8V124.8H80.4211V121.8H77.4211ZM70.5211 121.8H67.5211V124.8H70.5211V121.8ZM70.5211 65.2H73.5211V55.5854L68.0534 63.494L70.5211 65.2ZM48.1211 97.6V100.6H49.6942L50.5888 99.306L48.1211 97.6ZM42.3211 97.6L39.8534 99.306L40.748 100.6H42.3211V97.6ZM19.9211 65.2L22.3888 63.494L16.9211 55.5854V65.2H19.9211ZM19.9211 122V125H22.9211V122H19.9211ZM13.1211 122H10.1211V125H13.1211V122ZM13.1211 55.5V52.5H10.1211V55.5H13.1211ZM21.5211 55.5L23.9892 53.7946L23.0947 52.5H21.5211V55.5ZM45.2211 89.8L42.753 91.5054L45.2211 95.0774L47.6892 91.5054L45.2211 89.8ZM68.9211 55.5V52.5H67.3475L66.453 53.7946L68.9211 55.5ZM74.4211 55.5V121.8H80.4211V55.5H74.4211ZM77.4211 118.8H70.5211V124.8H77.4211V118.8ZM73.5211 121.8V65.2H67.5211V121.8H73.5211ZM68.0534 63.494L45.6534 95.894L50.5888 99.306L72.9888 66.906L68.0534 63.494ZM48.1211 94.6H42.3211V100.6H48.1211V94.6ZM44.7888 95.894L22.3888 63.494L17.4534 66.906L39.8534 99.306L44.7888 95.894ZM16.9211 65.2V122H22.9211V65.2H16.9211ZM19.9211 119H13.1211V125H19.9211V119ZM16.1211 122V55.5H10.1211V122H16.1211ZM13.1211 58.5H21.5211V52.5H13.1211V58.5ZM19.053 57.2054L42.753 91.5054L47.6892 88.0946L23.9892 53.7946L19.053 57.2054ZM47.6892 91.5054L71.3892 57.2054L66.453 53.7946L42.753 88.0946L47.6892 91.5054ZM68.9211 58.5H77.4211V52.5H68.9211V58.5ZM129.838 72H132.838V69H129.838V72ZM126.938 132.5L129.533 134.005L126.938 132.5ZM119.038 140.4L120.543 142.995L119.038 140.4ZM97.6375 140.6L99.1083 137.985L97.6375 140.6ZM89.8375 133.3L88.3585 130.69L85.5804 132.264L87.3247 134.939L89.8375 133.3ZM95.8375 129.9L98.3336 128.236L96.786 125.914L94.3585 127.29L95.8375 129.9ZM101.037 134.7L99.5667 137.315L99.5838 137.324L99.6009 137.334L101.037 134.7ZM115.538 134.5L114.049 131.895L114.033 131.905L114.016 131.914L115.538 134.5ZM121.037 129L118.452 127.479L118.442 127.495L118.433 127.512L121.037 129ZM123.037 116.3H126.037V109.396L120.991 114.107L123.037 116.3ZM116.238 120.7L117.339 123.49L117.37 123.478L117.402 123.465L116.238 120.7ZM97.3375 119.4L95.8095 121.982L95.8404 122L95.8717 122.018L97.3375 119.4ZM89.4375 111.7L86.8698 113.251L86.8815 113.271L86.8935 113.29L89.4375 111.7ZM86.4375 101.1H83.4375V101.126L83.4379 101.152L86.4375 101.1ZM86.4375 72V69H83.4375V72H86.4375ZM93.2375 72H96.2375V69H93.2375V72ZM95.2375 108L92.6328 109.488L92.6421 109.505L92.6517 109.521L95.2375 108ZM100.638 113.4L99.1164 115.986L99.1327 115.995L99.1491 116.005L100.638 113.4ZM115.538 113.4L114.049 110.795L114.033 110.805L114.016 110.814L115.538 113.4ZM121.037 108L123.623 109.521L123.633 109.505L123.642 109.488L121.037 108ZM123.037 72V69H120.037V72H123.037ZM126.838 72V121.6H132.838V72H126.838ZM126.838 121.6C126.838 125.016 126.005 128.129 124.342 130.995L129.533 134.005C131.737 130.205 132.838 126.05 132.838 121.6H126.838ZM124.342 130.995C122.671 133.876 120.414 136.134 117.532 137.805L120.543 142.995C124.328 140.8 127.337 137.791 129.533 134.005L124.342 130.995ZM117.532 137.805C114.666 139.467 111.554 140.3 108.137 140.3V146.3C112.588 146.3 116.742 145.199 120.543 142.995L117.532 137.805ZM108.137 140.3C104.834 140.3 101.843 139.524 99.1083 137.985L96.1667 143.215C99.8319 145.276 103.841 146.3 108.137 146.3V140.3ZM99.1083 137.985C96.3279 136.421 94.0858 134.322 92.3503 131.661L87.3247 134.939C89.5892 138.411 92.5471 141.179 96.1667 143.215L99.1083 137.985ZM91.3165 135.91L97.3165 132.51L94.3585 127.29L88.3585 130.69L91.3165 135.91ZM93.3413 131.564C94.9418 133.965 97.0293 135.887 99.5667 137.315L102.508 132.085C100.779 131.113 99.3999 129.835 98.3336 128.236L93.3413 131.564ZM99.6009 137.334C102.247 138.777 105.108 139.5 108.137 139.5V133.5C106.1 133.5 104.228 133.023 102.474 132.066L99.6009 137.334ZM108.137 139.5C111.331 139.5 114.324 138.694 117.059 137.086L114.016 131.914C112.218 132.972 110.277 133.5 108.137 133.5V139.5ZM117.026 137.105C119.824 135.506 122.043 133.287 123.642 130.488L118.433 127.512C117.365 129.38 115.917 130.828 114.049 131.895L117.026 137.105ZM123.623 130.521C125.232 127.787 126.037 124.794 126.037 121.6H120.037C120.037 123.74 119.51 125.68 118.452 127.479L123.623 130.521ZM126.037 121.6V116.3H120.037V121.6H126.037ZM120.991 114.107C119.25 115.731 117.283 117.005 115.073 117.935L117.402 123.465C120.259 122.262 122.825 120.602 125.084 118.493L120.991 114.107ZM115.136 117.91C112.972 118.764 110.647 119.2 108.137 119.2V125.2C111.361 125.2 114.437 124.636 117.339 123.49L115.136 117.91ZM108.137 119.2C104.778 119.2 101.683 118.395 98.8033 116.782L95.8717 122.018C99.6585 124.138 103.764 125.2 108.137 125.2V119.2ZM98.8655 116.818C96.0094 115.128 93.7255 112.9 91.9815 110.11L86.8935 113.29C89.1495 116.9 92.1323 119.805 95.8095 121.982L98.8655 116.818ZM92.0052 110.149C90.3553 107.418 89.4949 104.405 89.4371 101.048L83.4379 101.152C83.5134 105.529 84.653 109.582 86.8698 113.251L92.0052 110.149ZM89.4375 101.1V72H83.4375V101.1H89.4375ZM86.4375 75H93.2375V69H86.4375V75ZM90.2375 72V100.5H96.2375V72H90.2375ZM90.2375 100.5C90.2375 103.693 91.0425 106.705 92.6328 109.488L97.8422 106.512C96.7658 104.628 96.2375 102.64 96.2375 100.5H90.2375ZM92.6517 109.521C94.2437 112.227 96.4101 114.394 99.1164 115.986L102.159 110.814C100.332 109.739 98.898 108.306 97.8233 106.479L92.6517 109.521ZM99.1491 116.005C101.932 117.595 104.945 118.4 108.137 118.4V112.4C105.997 112.4 104.01 111.872 102.126 110.795L99.1491 116.005ZM108.137 118.4C111.331 118.4 114.324 117.594 117.059 115.986L114.016 110.814C112.218 111.872 110.277 112.4 108.137 112.4V118.4ZM117.026 116.005C119.803 114.418 122.019 112.249 123.623 109.521L118.452 106.479C117.389 108.285 115.939 109.715 114.049 110.795L117.026 116.005ZM123.642 109.488C125.232 106.705 126.037 103.693 126.037 100.5H120.037C120.037 102.64 119.509 104.628 118.433 106.512L123.642 109.488ZM126.037 100.5V72H120.037V100.5H126.037ZM123.037 75H129.838V69H123.037V75Z" fill="black"/>
</svg>
